<?xml version="1.0" encoding="UTF-8" standalone="no"?>
<svg
   xmlns:dc="http://purl.org/dc/elements/1.1/"
   xmlns:cc="http://creativecommons.org/ns#"
   xmlns:rdf="http://www.w3.org/1999/02/22-rdf-syntax-ns#"
   xmlns:svg="http://www.w3.org/2000/svg"
   xmlns="http://www.w3.org/2000/svg"
   xmlns:sodipodi="http://sodipodi.sourceforge.net/DTD/sodipodi-0.dtd"
   xmlns:inkscape="http://www.inkscape.org/namespaces/inkscape"
   version="1.1"
   x="0px"
   y="0px"
   width="100px"
   height="33.285px"
   viewBox="0 0 100 33.285"
   enable-background="new 0 0 100 33.285"
   xml:space="preserve"
   id="svg2"
   inkscape:version="0.48.3.1 r9886"
   sodipodi:docname="noun_project_1135.svg"><metadata
   id="metadata18"><rdf:RDF><cc:Work
       rdf:about=""><dc:format>image/svg+xml</dc:format><dc:type
         rdf:resource="http://purl.org/dc/dcmitype/StillImage" /><dc:title></dc:title></cc:Work></rdf:RDF></metadata><defs
   id="defs16" /><sodipodi:namedview
   pagecolor="#ffffff"
   bordercolor="#666666"
   borderopacity="1"
   objecttolerance="10"
   gridtolerance="10"
   guidetolerance="10"
   inkscape:pageopacity="0"
   inkscape:pageshadow="2"
   inkscape:window-width="1366"
   inkscape:window-height="744"
   id="namedview14"
   showgrid="false"
   inkscape:zoom="11.68"
   inkscape:cx="49.133785"
   inkscape:cy="13.4578"
   inkscape:window-x="0"
   inkscape:window-y="24"
   inkscape:window-maximized="1"
   inkscape:current-layer="Layer_1" />
<g
   id="Layer_1"
   style="fill:#666666">
	<path
   d="M12.013,2.303c-0.75,0-1.082,0.455-1.346,1.109l-4.51,11.44l-0.14,0.87v5.59l0.02,4.3c-0.02,1.141,0.84,1.74,1.7,1.771   h3.31c-0.11-0.44-0.17-0.891-0.17-1.36c0-0.02,0-0.04,0-0.06c0.03-2.99,2.46-5.41,5.47-5.41c3.02,0,5.46,2.45,5.47,5.46v0.02   c0,0.471-0.06,0.92-0.17,1.351h28.16l12.949,0.012c-0.114-0.439-0.182-0.896-0.182-1.371c0.001-3.02,2.455-5.474,5.47-5.475   c3.012,0.001,5.465,2.454,5.469,5.467c-0.002,0.482-0.071,0.947-0.189,1.393l2.864,0.004c-0.11-0.439-0.171-0.909-0.171-1.39v-0.01   c0-3.021,2.44-5.46,5.461-5.46c3.02,0,5.47,2.439,5.47,5.46v0.02c0,0.49-0.07,0.971-0.19,1.42h6.11l0.11-21.26   c0.02-2.01-2.48-3.99-4.49-3.93 M19.102,12.803c0,0.68-0.591,1.22-1.312,1.22h-7.052c-0.72,0-1.726-0.335-1.226-1.435l1.914-4.785   c0.28-0.75,0.592-1.22,1.312-1.22h5.052c0.72,0,1.312,0.54,1.312,1.22V12.803z M34.582,12.919c0,0.711-0.587,1.276-1.301,1.276   h-6.998c-0.714,0-1.302-0.565-1.302-1.276V7.687c0-0.712,0.587-1.277,1.302-1.277h6.998c0.714,0,1.301,0.565,1.301,1.277V12.919z    M45.295,12.919c0,0.711-0.586,1.276-1.302,1.276h-6.998c-0.714,0-1.301-0.565-1.301-1.276V7.687c0-0.712,0.587-1.277,1.301-1.277   h6.998c0.715,0,1.302,0.565,1.302,1.277V12.919z M56.009,12.919c0,0.711-0.587,1.276-1.303,1.276H47.71   c-0.715,0-1.303-0.565-1.303-1.276V7.687c0-0.712,0.587-1.277,1.303-1.277h6.996c0.716,0,1.303,0.565,1.303,1.277V12.919z    M66.722,12.919c0,0.711-0.588,1.276-1.302,1.276h-6.996c-0.717,0-1.303-0.565-1.303-1.276V7.687c0-0.712,0.586-1.277,1.303-1.277   h6.996c0.714,0,1.302,0.565,1.302,1.277V12.919z M77.436,12.919c0,0.711-0.588,1.276-1.303,1.276h-6.997   c-0.714,0-1.302-0.565-1.302-1.276V7.687c0-0.712,0.588-1.277,1.302-1.277h6.997c0.715,0,1.303,0.565,1.303,1.277V12.919z    M88.148,12.919c0,0.711-0.587,1.276-1.303,1.276h-6.997c-0.715,0-1.301-0.565-1.301-1.276V7.687c0-0.712,0.586-1.277,1.301-1.277   h6.997c0.716,0,1.303,0.565,1.303,1.277V12.919z"
   id="path5"
   style="fill:#f9f9f9" />
	<path
   d="M16.347,30.947L16.347,30.947c-0.002,0-0.007,0-0.009,0l0,0c-2.672-0.007-4.833-2.172-4.834-4.844l0,0   c0-0.021,0-0.038,0-0.054l0,0c0.026-2.653,2.184-4.795,4.843-4.796l0,0c2.675,0.001,4.842,2.169,4.844,4.845l0,0   c0,0.004,0,0.007,0,0.016l0,0C21.184,28.785,19.019,30.947,16.347,30.947L16.347,30.947L16.347,30.947z M16.341,27.769   c0.002,0,0.003,0,0.007,0l0,0c0.916,0,1.662-0.745,1.664-1.657l0,0c0-0.006,0-0.009,0-0.015l0,0   c-0.001-0.917-0.746-1.662-1.664-1.663l0,0c-0.918,0.001-1.663,0.745-1.663,1.663l0,0v0.041v0.001   C14.702,27.041,15.438,27.767,16.341,27.769L16.341,27.769L16.341,27.769L16.341,27.769z"
   id="path7"
   style="fill:#f9f9f9" />
	<path
   d="M81.483,30.947L81.483,30.947c-0.004,0-0.007,0-0.01,0l0,0c-2.673-0.005-4.833-2.172-4.834-4.844l0,0   c0-0.001,0-0.003,0-0.005l0,0l0,0c0.001-2.678,2.168-4.844,4.845-4.845l0,0c2.675,0.001,4.841,2.167,4.844,4.843l0,0l0,0v0.002   c0,0.004,0,0.007,0,0.016l0,0C86.319,28.786,84.154,30.947,81.483,30.947L81.483,30.947L81.483,30.947z M81.477,27.767   c0.002,0,0.005,0,0.007,0l0,0c0.915,0.002,1.663-0.743,1.663-1.655l0,0c0-0.006,0-0.009,0-0.015l0,0   c0-0.917-0.745-1.662-1.662-1.665l0,0c-0.918,0.003-1.663,0.747-1.665,1.665l0,0v0.048C79.841,27.043,80.575,27.766,81.477,27.767   L81.477,27.767L81.477,27.767L81.477,27.767z"
   id="path9"
   style="fill:#f9f9f9" />
	<path
   d="M68.046,30.947L68.046,30.947c-0.004,0-0.007,0-0.01,0l0,0c-2.673-0.005-4.833-2.172-4.834-4.844l0,0   c0-0.001,0-0.003,0-0.005l0,0l0,0c0.001-2.678,2.168-4.844,4.845-4.845l0,0c2.675,0.001,4.841,2.167,4.844,4.843l0,0l0,0v0.002   c0,0.004,0,0.007,0,0.016l0,0C72.882,28.786,70.717,30.947,68.046,30.947L68.046,30.947L68.046,30.947z M68.039,27.767   c0.002,0,0.005,0,0.007,0l0,0c0.915,0.002,1.663-0.743,1.663-1.655l0,0c0-0.006,0-0.009,0-0.015l0,0   c0-0.917-0.745-1.662-1.662-1.665l0,0c-0.918,0.003-1.663,0.747-1.665,1.665l0,0v0.048C66.403,27.043,67.138,27.766,68.039,27.767   L68.039,27.767L68.039,27.767L68.039,27.767z"
   id="path11"
   style="fill:#f9f9f9" />
</g>
<g
   id="Layer_2">
</g>
</svg>